<svg width="1200" height="800" viewBox="0 0 1200 800" xmlns="http://www.w3.org/2000/svg">
  <!-- Space Background -->
  <defs>
    <radialGradient id="spaceGradient" cx="50%" cy="50%" r="70%">
      <stop offset="0%" style="stop-color:#1a1a2e;stop-opacity:1" />
      <stop offset="40%" style="stop-color:#16213e;stop-opacity:1" />
      <stop offset="80%" style="stop-color:#0f3460;stop-opacity:1" />
      <stop offset="100%" style="stop-color:#0e1428;stop-opacity:1" />
    </radialGradient>
    
    <!-- Cloud gradients -->
    <radialGradient id="cloudGradient1" cx="50%" cy="50%" r="60%">
      <stop offset="0%" style="stop-color:#6b46c1;stop-opacity:0.3" />
      <stop offset="70%" style="stop-color:#9333ea;stop-opacity:0.15" />
      <stop offset="100%" style="stop-color:#1e1b4b;stop-opacity:0.05" />
    </radialGradient>
    
    <radialGradient id="cloudGradient2" cx="50%" cy="50%" r="60%">
      <stop offset="0%" style="stop-color:#7c3aed;stop-opacity:0.25" />
      <stop offset="70%" style="stop-color:#5b21b6;stop-opacity:0.12" />
      <stop offset="100%" style="stop-color:#312e81;stop-opacity:0.03" />
    </radialGradient>
  </defs>
  
  <!-- Space background -->
  <rect width="1200" height="800" fill="url(#spaceGradient)"/>
  
  <!-- Stars -->
  <circle cx="150" cy="120" r="1" fill="white" opacity="0.8"/>
  <circle cx="300" cy="80" r="1.5" fill="white" opacity="0.9"/>
  <circle cx="450" cy="150" r="1" fill="white" opacity="0.7"/>
  <circle cx="600" cy="90" r="1" fill="white" opacity="0.85"/>
  <circle cx="750" cy="140" r="1.2" fill="white" opacity="0.75"/>
  <circle cx="900" cy="110" r="1" fill="white" opacity="0.9"/>
  <circle cx="1050" cy="170" r="1.5" fill="white" opacity="0.8"/>
  <circle cx="180" cy="350" r="1" fill="white" opacity="0.6"/>
  <circle cx="380" cy="300" r="1.2" fill="white" opacity="0.8"/>
  <circle cx="580" cy="380" r="1" fill="white" opacity="0.7"/>
  <circle cx="780" cy="320" r="1.5" fill="white" opacity="0.9"/>
  <circle cx="980" cy="360" r="1" fill="white" opacity="0.8"/>
  <circle cx="200" cy="600" r="1.2" fill="white" opacity="0.75"/>
  <circle cx="400" cy="650" r="1" fill="white" opacity="0.85"/>
  <circle cx="650" cy="620" r="1.5" fill="white" opacity="0.7"/>
  <circle cx="850" cy="680" r="1" fill="white" opacity="0.9"/>
  <circle cx="1000" cy="640" r="1.2" fill="white" opacity="0.8"/>
  
  <!-- Shooting stars -->
  <line x1="100" y1="200" x2="140" y2="220" stroke="white" stroke-width="2" opacity="0.6"/>
  <line x1="800" y1="250" x2="850" y2="280" stroke="white" stroke-width="1.5" opacity="0.5"/>
  
  <!-- Cloud layers for "peeking through clouds" effect -->
  <ellipse cx="200" cy="600" rx="180" ry="120" fill="url(#cloudGradient1)" opacity="0.4"/>
  <ellipse cx="1000" cy="650" rx="200" ry="100" fill="url(#cloudGradient2)" opacity="0.35"/>
  <ellipse cx="100" cy="200" rx="150" ry="80" fill="url(#cloudGradient1)" opacity="0.3"/>
  <ellipse cx="800" cy="150" rx="160" ry="90" fill="url(#cloudGradient2)" opacity="0.4"/>
  
  <!-- Classic RadioShack Circular R Logo (1974-1995) -->
  <g transform="translate(250, 200)">
    <!-- Black circle background -->
    <circle cx="0" cy="0" r="60" fill="#000000" stroke="none"/>
    <!-- Red R letter -->
    <text x="0" y="15" font-family="Arial Black, sans-serif" font-size="70" font-weight="900" fill="#dc2626" text-anchor="middle" dominant-baseline="middle">R</text>
    <!-- Subtle glow effect -->
    <circle cx="0" cy="0" r="60" fill="none" stroke="rgba(220, 38, 38, 0.3)" stroke-width="2"/>
  </g>
  
  <!-- Blockbuster Logo -->
  <g transform="translate(800, 300) rotate(15)">
    <!-- Blue background with yellow border -->
    <rect x="-90" y="-25" width="180" height="50" fill="#1e40af" rx="8"/>
    <rect x="-90" y="-25" width="180" height="50" fill="none" stroke="#fbbf24" stroke-width="3" rx="8"/>
    <!-- BLOCKBUSTER text -->
    <text x="0" y="2" font-family="Arial Black, sans-serif" font-size="20" font-weight="900" fill="white" text-anchor="middle" dominant-baseline="middle" style="font-style: italic;">BLOCKBUSTER</text>
    <!-- VIDEO text -->
    <text x="0" y="18" font-family="Arial, sans-serif" font-size="8" font-weight="bold" fill="#fbbf24" text-anchor="middle" dominant-baseline="middle">VIDEO</text>
  </g>
  
  <!-- Toys"R"Us Logo -->
  <g transform="translate(450, 500) rotate(-10)">
    <!-- Colorful background -->
    <rect x="-60" y="-20" width="120" height="40" fill="#fbbf24" rx="6"/>
    <rect x="-60" y="-20" width="120" height="40" fill="none" stroke="#f97316" stroke-width="2" rx="6"/>
    <!-- TOYS"R"US text -->
    <text x="0" y="2" font-family="Arial Black, sans-serif" font-size="16" font-weight="900" fill="#1e40af" text-anchor="middle" dominant-baseline="middle">TOYS"R"US</text>
  </g>
  
  <!-- Tower Records Logo -->
  <g transform="translate(150, 450) rotate(8)">
    <!-- Yellow background -->
    <rect x="-45" y="-25" width="90" height="50" fill="#fbbf24" rx="5"/>
    <!-- TOWER text -->
    <text x="0" y="-5" font-family="Arial Black, sans-serif" font-size="16" font-weight="900" fill="#dc2626" text-anchor="middle" dominant-baseline="middle">TOWER</text>
    <!-- RECORDS text -->
    <text x="0" y="12" font-family="Arial, sans-serif" font-size="10" font-weight="bold" fill="#dc2626" text-anchor="middle" dominant-baseline="middle">RECORDS</text>
  </g>
  
  <!-- Circuit City Red Plug Logo -->
  <g transform="translate(950, 480)">
    <!-- Plug prongs -->
    <rect x="-8" y="-45" width="6" height="25" fill="#9ca3af" rx="3"/>
    <rect x="2" y="-45" width="6" height="25" fill="#9ca3af" rx="3"/>
    <!-- Red plug body -->
    <rect x="-25" y="-20" width="50" height="60" fill="#dc2626" rx="25" ry="25"/>
    <!-- CIRCUIT text -->
    <text x="0" y="-2" font-family="Arial Black, sans-serif" font-size="12" font-weight="900" fill="white" text-anchor="middle" dominant-baseline="middle">CIRCUIT</text>
    <!-- CITY text -->
    <text x="0" y="12" font-family="Arial Black, sans-serif" font-size="12" font-weight="900" fill="white" text-anchor="middle" dominant-baseline="middle">CITY</text>
  </g>
  
  <!-- Additional atmospheric effects -->
  <ellipse cx="600" cy="400" rx="300" ry="200" fill="none" stroke="rgba(147, 51, 234, 0.1)" stroke-width="1" opacity="0.5"/>
  <ellipse cx="600" cy="400" rx="500" ry="350" fill="none" stroke="rgba(99, 102, 241, 0.08)" stroke-width="1" opacity="0.3"/>
  
  <!-- More distant stars -->
  <circle cx="70" cy="50" r="0.5" fill="white" opacity="0.4"/>
  <circle cx="520" cy="40" r="0.5" fill="white" opacity="0.5"/>
  <circle cx="820" cy="70" r="0.5" fill="white" opacity="0.6"/>
  <circle cx="1120" cy="90" r="0.5" fill="white" opacity="0.4"/>
  <circle cx="50" cy="750" r="0.5" fill="white" opacity="0.5"/>
  <circle cx="1150" cy="720" r="0.5" fill="white" opacity="0.6"/>
</svg>